<?xml version="1.0" encoding="UTF-8"?>
<svg id="Layer_1" xmlns="http://www.w3.org/2000/svg" viewBox="0 0 178.64 121.2">
  <defs>
    <style>
      .cls-1 {
        fill: #898989;
      }
    </style>
  </defs>
  <g id="_x34_8ybIQ.tif">
    <g>
      <path class="cls-1" d="M90.4,84.14v1.92c3.44,1.33,5.27,3.85,5.56,7.58,1.99,0,3.97,0,5.94,0,1.19,0,2.38-.02,3.56,0,2.58.07,4.63,2.15,4.66,4.71.03,2.58-2.05,4.71-4.68,4.8-.2,0-.4,0-.59,0-28.16,0-56.31,0-84.47,0-2.63,0-4.53-1.33-5.09-3.54-.66-2.6.84-5.11,3.45-5.8.25-.07.5-.14.68-.19-.13-2.32-.37-4.58-.34-6.85.06-4.87,1.1-9.5,4.02-13.53,2.15-2.97,5.04-4.88,8.55-5.9.33-.09.78-.42.82-.69.08-.59.23-1.19-.62-1.63-5.79-2.96-8.8-7.76-8.76-14.26.06-9.12,7.29-16.01,16.31-15.74,7.95.23,14.48,6.39,15.13,14.27.58,7.07-2.52,12.63-8.84,15.85-.15.07-.29.16-.45.26v1.35c1.32.52,2.63.91,3.81,1.53,3.6,1.87,5.7,5.02,7.02,8.73.6,1.7.93,3.5,1.42,5.24.08.28.34.66.59.72,3.15.77,5.1,2.75,5.99,5.93,1.3,0,2.62.06,3.93-.01,2.77-.14,4.71.94,5.71,3.87.69-3.36,2.47-5.56,5.53-6.67v-1.94c-.36,0-.71,0-1.06,0-4.52,0-9.04,0-13.57,0-3.17,0-5.15-1.96-5.15-5.11,0-9.8,0-19.61,0-29.41,0-3.1,1.98-5.1,5.06-5.1,13.53,0,27.07,0,40.6,0,3.03,0,5.05,1.99,5.05,5.01,0,9.87,0,19.74,0,29.61,0,3.01-2.02,4.99-5.06,5-4.52,0-9.04,0-13.57,0-.36,0-.71,0-1.14,0ZM84.81,80.96c6.67,0,13.33,0,20,0,1.69,0,2.18-.5,2.18-2.18,0-9.64,0-19.27,0-28.91,0-1.69-.49-2.18-2.18-2.18-13.33,0-26.67,0-40,0-1.69,0-2.18.49-2.18,2.17,0,9.64,0,19.27,0,28.91,0,1.69.49,2.18,2.18,2.18,6.67,0,13.33,0,20,0ZM60.74,88.88c-.94-1.94-2.51-2.63-4.27-2.94-3.61-.64-7.2-.19-10.69.7-4.21,1.08-8.34,2.42-12.51,3.66-1,.3-1.78.02-2.17-.8-.38-.82-.06-1.58.81-2.17.23-.15.46-.57.41-.8-.36-1.6-.74-3.2-1.21-4.77-.23-.78-.21-1.43.42-1.97.88-.75,2.11-.4,2.53.81.62,1.79,1.11,3.62,1.63,5.38,3.09-.84,6.26-1.7,9.51-2.58,0-.75-.02-1.54,0-2.32.04-1,.7-1.67,1.59-1.67.89,0,1.53.69,1.57,1.69.02.61,0,1.21,0,1.79,2.06-.14,3.97-.27,5.87-.4-.7-6.39-4.9-11.91-9.34-12.26-1.04,2.62-2.94,4.23-5.8,4.34-2.99.11-5.03-1.47-6.27-4.2-3.91,1.09-6.76,3.41-8.58,6.97-1.4,2.76-1.95,5.75-1.97,8.8-.02,2.49.22,4.97.35,7.45h25.67c.54-3.29,2.23-4.71,5.55-4.71,2.24,0,4.48,0,6.89,0ZM26.19,50.84c0,6.92,5.7,12.69,12.53,12.69,7.22,0,12.8-5.56,12.75-12.71-.04-7.17-5.52-12.61-12.73-12.63-6.84-.02-12.56,5.74-12.56,12.66ZM62.67,96.81c-13.99,0-27.99,0-41.98,0-.33,0-.67-.03-.99.02-.86.14-1.38.68-1.39,1.54,0,.87.51,1.41,1.36,1.57.35.06.72.03,1.09.03,27.92,0,55.85,0,83.77,0,.26,0,.53.01.79,0,.99-.06,1.67-.73,1.65-1.61-.02-.85-.68-1.48-1.63-1.54-.3-.02-.59,0-.89,0-13.93,0-27.86,0-41.79,0ZM76.89,93.58h15.84c-.15-1.92-1-3.28-2.65-4.17-2.43,4.54-8.13,4.49-10.53,0-1.65.89-2.51,2.24-2.66,4.17ZM70.56,93.59c-.21-1.03-.77-1.52-1.72-1.52-5.2,0-10.41,0-15.61,0-.94,0-1.52.49-1.67,1.52h19ZM41.97,66.76h-6.22c-.17,1.63-.15,3.15,1.38,4.16,1.09.72,2.24.75,3.35.07,1.6-.98,1.67-2.53,1.48-4.23ZM82.56,84.16c0,1.26-.13,2.54.04,3.78.14,1.05,1.22,1.72,2.25,1.7,1.07-.02,2.13-.78,2.25-1.86.13-1.19.03-2.4.03-3.62h-4.57Z"/>
      <path class="cls-1" d="M62.61,41.36c-3.55.29-5.05-1.15-4.73-4.75.07-.78-.21-1.2-.91-1.61-4.74-2.78-6.67-8.57-4.62-13.66,2.02-5.01,7.48-7.85,12.75-6.64,5.3,1.22,8.98,6.09,8.58,11.52-.29,3.92-2.19,6.93-5.6,8.91-.53.31-.77.62-.71,1.22.05.56.02,1.12,0,1.68-.03,1.97-1.33,3.28-3.29,3.32-.49,0-.99,0-1.49,0ZM64.06,33.2c3.84-.52,6.84-4.5,6.38-8.4-.52-4.43-4.29-7.61-8.52-7.18-4.24.43-7.51,4.26-7.16,8.37.31,3.58,3.37,7.16,5.84,6.97.28-1.43.56-2.83.83-4.24-.03,0-.13-.03-.23-.04-1.12-.12-1.77-.72-1.75-1.62.02-.95.74-1.55,1.91-1.55,1.45-.01,2.9-.01,4.35,0,.83,0,1.39.45,1.57,1.25.19.81-.18,1.4-.9,1.79-2.01,1.08-2.62,2.28-2.34,4.65ZM64.18,36.68h-3.08v1.5h3.08v-1.5Z"/>
      <path class="cls-1" d="M61.04,10.43c0-.07,0-.13,0-.2,0-1.41.55-2.15,1.59-2.15,1.04,0,1.58.74,1.59,2.15,0,.33.01.66,0,.98-.06.98-.74,1.64-1.63,1.61-.85-.03-1.47-.67-1.53-1.61-.02-.26,0-.52,0-.79,0,0,0,0,0,0Z"/>
      <path class="cls-1" d="M72.48,11.77c-.74,1.03-1.27,2.01-2.05,2.74-.27.26-1.28.11-1.65-.21-.37-.32-.57-1.12-.46-1.63.14-.67.55-1.39,1.06-1.84.41-.36,1.21-.58,1.73-.45.47.12.81.79,1.37,1.4Z"/>
      <path class="cls-1" d="M54.93,10.22c.19.1.68.23.94.54.45.56.81,1.2,1.09,1.86.33.78.01,1.44-.68,1.85-.66.39-1.39.36-1.88-.25-.49-.61-.91-1.3-1.19-2.02-.37-.95.43-1.95,1.73-1.98Z"/>
      <path class="cls-1" d="M95.94,63.47c-.03,5.21-3.67,9.08-8.97,9.51-4.75.38-9.06-2.93-9.87-7.58-.9-5.13,2.03-9.77,6.99-11.04.47-.12.98-.21,1.46-.18,1,.05,1.49.85,1.38,2.1-.23,2.6,1.56,4.59,4.15,4.52.6-.02,1.21-.27,1.78-.52,1.68-.73,2.59-.28,2.89,1.52.09.55.13,1.11.2,1.67ZM83.73,57.91c-2.77,1.13-4.24,4.47-3.34,7.45.92,3.05,4.01,4.99,7.04,4.44,3.02-.55,5.41-3.28,5.18-5.9-5.01.24-7.67-1.54-8.87-5.99Z"/>
    </g>
  </g>
  <g>
    <rect class="cls-1" x="121.8" y="52.31" width="36.9" height="2.85"/>
    <rect class="cls-1" x="121.8" y="62.16" width="21.74" height="2.85"/>
    <rect class="cls-1" x="121.8" y="72.01" width="31.33" height="2.85"/>
  </g>
</svg>