<?xml version="1.0" encoding="UTF-8"?>
<svg id="Layer_1" xmlns="http://www.w3.org/2000/svg" viewBox="0 0 178.64 121.2">
  <defs>
    <style>
      .cls-1 {
        fill: #5147e7;
      }
    </style>
  </defs>
  <g id="rH7pK9.tif">
    <path class="cls-1" d="M35.02,42.47c-5.7-5.67-5.82-13.67-2.09-19.16,3.74-5.51,10.68-7.84,17-5.76,5.85,1.93,10.65,7.84,10.08,15.22-.31,4-2,7.34-4.99,10-2.97,2.64-6.5,3.79-10.62,3.72,2.38,4.73,4.69,9.31,7.02,13.94,3.51-2.18,6.49-5.08,10.4-6.76-1.03-.71-2.02-1.38-2.99-2.06-.69-.48-.91-1.16-.73-1.96.18-.78.71-1.29,1.48-1.35.46-.04,1.02.1,1.41.35,2.04,1.34,4.03,2.74,6.06,4.11.18.12.44.16.66.2.39.06.79.08,1.19.12,2.04.22,3.31,1.3,3.74,3.48.23-.29.41-.49.57-.71,2.53-3.32,5.03-6.65,7.58-9.95,1.28-1.65,3.03-2.32,5.09-1.9,2.12.43,3.48,1.76,3.99,3.87.41,1.67.01,3.21-1.07,4.56-1.47,1.85-2.94,3.7-4.44,5.53-.35.42-.42.73-.13,1.24,2.71,4.81,5.38,9.64,8.05,14.47.26.48.55.67,1.11.67,3.56-.03,7.12-.02,10.68-.01,1.68,0,2.32.63,2.33,2.29,0,6.51,0,13.02,0,19.53,0,1.6-.67,2.28-2.26,2.29-2.2,0-4.41,0-6.61,0-1.58,0-2.26-.69-2.26-2.3,0-1.67.01-3.35,0-5.02-.03-3.21-2.27-5.61-5.48-5.63-7.46-.06-14.93-.06-22.39,0-3.21.03-5.44,2.41-5.48,5.62-.02,1.7,0,3.4,0,5.1,0,1.53-.72,2.23-2.26,2.23-6.64,0-13.28.02-19.92,0-8.36-.03-14.91-6.57-14.93-14.92-.02-6.56-.04-13.12,0-19.68.06-8.46,3.33-15.45,9.8-20.92.14-.12.27-.25.45-.41ZM50.08,81.59c-.5-1.74-1-3.38-1.44-5.04-.21-.78-.46-1.21-1.42-1.4-2.82-.56-4.87-2.28-6.17-4.83-1.53-3-2.92-6.08-4.55-9.02-.84-1.53-.68-2.85.15-4.18.49-.77,1.09-1.51,1.78-2.12,1.45-1.29,3.23-1.76,5.15-1.71,0-.09.03-.16.01-.2-1.22-2.47-2.43-4.95-3.69-7.41-.38-.75-1.73-.95-2.37-.45-5.99,4.74-8.99,10.95-9.06,18.57-.05,5.66-.01,11.32,0,16.98,0,.26.03.52.04.82h21.57ZM45.14,42.75c6.15,0,11.17-5.01,11.16-11.15,0-6.1-5.01-11.1-11.11-11.12-6.13-.02-11.17,5.02-11.16,11.15,0,6.11,5.01,11.11,11.11,11.11ZM58.14,94.65c0-1.22-.01-2.39,0-3.55.08-5.26,3.99-9.34,9.17-9.39,7.49-.07,14.98-.07,22.47,0,3.47.03,6.14,1.67,7.94,4.66.91,1.52,1.26,3.2,1.24,4.96-.01,1.11,0,2.21,0,3.31h3.66v-16.57h-48.13v16.59h3.66ZM68.88,56.85c-3.26-.55-6.08.05-8.61,1.82-2.76,1.93-5.49,3.9-8.23,5.87-1.4,1.01-2.47.76-3.26-.81-.79-1.56-1.52-3.15-2.38-4.67-1.37-2.42-4.79-2.51-6.31-.22-.25.38-.3.71-.07,1.15,1.43,2.78,2.82,5.58,4.23,8.38,1.89,3.74,5.9,4.55,9.1,1.82,4.22-3.6,8.42-7.22,12.63-10.83.92-.79,1.84-1.58,2.91-2.5ZM50.69,94.66v-9.17h-22.03c.08.38.13.7.21,1,1.36,4.87,5.54,8.1,10.7,8.2,3.53.06,7.06.01,10.6.01.15,0,.31-.02.51-.04ZM81.37,61.68c-3.39,4.25-6.69,8.37-10.03,12.55h17.01c-2.34-4.21-4.63-8.32-6.98-12.55ZM86.52,48.92c-.44-.44-.76-.97-1.23-1.17-.71-.31-1.3.07-1.77.69-6.06,7.94-12.12,15.87-18.18,23.8-.56.74-.55,1.39.01,1.82.56.42,1.16.26,1.76-.48.73-.91,1.46-1.82,2.19-2.74,5.47-6.84,10.95-13.69,16.41-20.54.29-.36.47-.8.8-1.38ZM61.35,74.24c-.56-2.27.66-3.84,1.93-5.42,1.47-1.85,2.89-3.74,4.33-5.61.13-.17.24-.35.35-.53-.03-.02-.06-.04-.09-.06-4.53,3.87-9.05,7.74-13.59,11.62h7.06Z"/>
  </g>
  <g>
    <rect class="cls-1" x="123.1" y="53.8" width="36.9" height="2.85"/>
    <rect class="cls-1" x="123.1" y="63.65" width="21.74" height="2.85"/>
    <rect class="cls-1" x="123.1" y="73.5" width="31.33" height="2.85"/>
  </g>
</svg>