<?xml version="1.0" encoding="UTF-8"?>
<svg id="Layer_1" xmlns="http://www.w3.org/2000/svg" viewBox="0 0 178.64 121.2">
  <defs>
    <style>
      .cls-1 {
        fill: #f9f9f9;
      }
    </style>
  </defs>
  <g id="oWNdcX.tif">
    <g>
      <path class="cls-1" d="M79.39,86.02c0,.74.03,1.45,0,2.15-.11,2.43-1.98,4.54-4.41,4.57-8.73.08-17.46.08-26.2,0-2.42-.02-4.28-2.15-4.39-4.59-.03-.68,0-1.37,0-2.17-.41-.02-.76-.06-1.1-.06-8.99,0-17.99,0-26.98,0-1.44,0-1.71.28-1.71,1.72,0,1.47,0,2.94,0,4.41.02,3.88,2.7,6.61,6.58,6.66,2.98.04,5.95,0,8.93,0,9.03,0,18.05,0,27.08,0,.29,0,.59,0,.88,0,1.25.02,1.89.53,1.87,1.5-.02.95-.66,1.45-1.93,1.45-12.27,0-24.53.03-36.8,0-5.57-.02-9.55-4.08-9.57-9.64,0-1.34,0-2.68,0-4.02,0-3.17.82-4.26,3.99-5.15,0-.37,0-.78,0-1.19,0-16.74,0-33.48,0-50.22,0-3.61,1.85-6.23,5.03-7.07.75-.2,1.55-.26,2.33-.26,25.94-.01,51.87-.01,77.81,0,4.52,0,7.34,2.83,7.34,7.36,0,16.71,0,33.41,0,50.12,0,.42,0,.84,0,1.3.45.11.84.16,1.2.29,1.55.55,2.62,1.66,2.72,3.28.14,2.34.24,4.73-.05,7.05-.61,4.84-4.38,8.13-9.27,8.15-12.36.06-24.73.02-37.09.02-1.18,0-1.81-.53-1.81-1.47,0-.96.62-1.48,1.89-1.48,12.17,0,24.33-.01,36.5,0,1.99,0,3.75-.52,5.15-1.97,1.16-1.2,1.77-2.66,1.8-4.33.03-1.7.02-3.4,0-5.1,0-1.01-.36-1.4-1.34-1.4-9.29-.01-18.58,0-27.87,0-.16,0-.31.05-.59.09ZM54.01,75.1c-.08-.14-.09-.17-.11-.2-1.1-1.34-2.2-2.67-3.3-4.01-1.61-1.96-1.7-3.15-.37-5.33,3.34-5.47,6.68-10.93,10.02-16.39,1.23-2,3.07-1.99,4.3.01,1.64,2.67,3.27,5.35,4.91,8.03,1.72,2.82,3.45,5.63,5.16,8.45,1.25,2.06,1.15,3.3-.39,5.17-1,1.21-2,2.42-2.99,3.64-.16.19-.28.4-.43.62,1.16.97,1.87,2.1,1.89,3.58.02,1.4,0,2.79,0,4.23h24.96v-48.38c-.46,0-.85,0-1.23,0-10.07,0-20.15,0-30.22,0-.36,0-.72.02-1.08-.03-.75-.09-1.19-.53-1.27-1.27-.08-.79.28-1.35,1.05-1.55.4-.11.84-.11,1.26-.11,10.7,0,21.39,0,32.09,0,2.09,0,2.44.35,2.44,2.47,0,15.86,0,31.71,0,47.57,0,.44,0,.88,0,1.33h4.51v-1.1c0-16.77,0-33.54,0-50.32,0-2.97-1.49-4.44-4.48-4.44-25.87,0-51.75,0-77.62,0-3.04,0-4.49,1.46-4.49,4.53,0,16.74,0,33.48,0,50.22,0,.35,0,.7,0,1.09h4.5v-1.31c0-15.96,0-31.91,0-47.87,0-1.72.45-2.18,2.14-2.18,10.86,0,21.72,0,32.58,0,.36,0,.73,0,1.07.1.77.21,1.14.76,1.06,1.54-.07.74-.51,1.19-1.26,1.28-.35.04-.72.03-1.08.03-10.11,0-20.21,0-30.32,0h-1.17v48.38h25.9c.35-2.73-.84-5.76,2-7.8ZM63.9,61.21c2.76,1.41,3.88,3.39,3.33,5.85-.49,2.21-2.38,3.81-4.58,3.89-2.32.09-4.45-1.29-4.96-3.49-.24-1.02-.16-2.22.11-3.24.41-1.53,1.65-2.44,3.02-2.97v-7.39c-2.86,4.69-5.62,9.17-8.32,13.67-.16.27-.05.9.17,1.18,1.35,1.73,2.74,3.41,4.17,5.07.23.27.7.47,1.07.47,2.98.04,5.95.04,8.93,0,.39,0,.88-.25,1.13-.54,1.35-1.55,2.61-3.19,3.96-4.74.58-.66.56-1.18.11-1.89-2.57-4.14-5.09-8.3-7.63-12.45-.13-.21-.28-.4-.53-.75v7.31ZM47.46,85.98c-.42,2.77.02,3.95,3.03,3.91,7.71-.1,15.42-.03,23.13-.03.42,0,.85,0,1.27-.06.83-.14,1.39-.67,1.5-1.47.11-.75.02-1.54.02-2.34h-28.95ZM69.75,82.93c0-1.45.02-2.79,0-4.12-.02-.93-.56-1.52-1.45-1.53-3.92-.05-7.83-.03-11.75-.01-.76,0-1.4.45-1.46,1.2-.1,1.48-.03,2.97-.03,4.46h14.69ZM62.37,64.02c-1.1,0-2,.9-2,1.99,0,1.08.91,1.99,1.99,2,1.13.01,2.08-.94,2.05-2.05-.03-1.09-.94-1.95-2.04-1.94Z"/>
      <path class="cls-1" d="M24.91,91.76c-.04.83-.72,1.43-1.58,1.38-.8-.04-1.42-.68-1.41-1.47.01-.8.73-1.49,1.54-1.46.81.03,1.49.74,1.45,1.54Z"/>
      <path class="cls-1" d="M29.78,91.66c.02-.8.76-1.48,1.56-1.44.81.04,1.47.77,1.42,1.57-.05.79-.68,1.37-1.5,1.36-.84,0-1.5-.67-1.48-1.49Z"/>
      <path class="cls-1" d="M73.85,43.77c6.22,4.25,9.79,10.01,10.53,17.52.29.02.54.05.8.06,1.63.09,2.58,1.06,2.6,2.71.02,1.44.02,2.88,0,4.31-.03,1.64-.98,2.61-2.63,2.65-1.47.03-2.94.03-4.41,0-1.68-.04-2.59-.96-2.62-2.64-.03-1.37-.02-2.75,0-4.12.02-1.95.82-2.79,2.77-2.92.12,0,.25-.03.37-.05.05-6.94-6.5-17.25-18.49-17.5-11.48-.25-19.02,9.25-19.29,17.5.31.03.63.04.94.08,1.25.16,2.15,1,2.21,2.24.07,1.73.07,3.46,0,5.19-.06,1.26-.96,2.13-2.22,2.18-1.7.07-3.4.07-5.1,0-1.24-.05-2.2-.93-2.26-2.17-.09-1.73-.09-3.47,0-5.19.06-1.27,1.03-2.13,2.31-2.27.32-.03.65-.03,1.05-.05.73-7.51,4.31-13.29,10.9-17.54-2.29,0-4.27-.02-6.25.03-.23,0-.5.44-.66.72-1.08,1.81-3.15,2.7-5.12,2.16-2.02-.55-3.41-2.35-3.41-4.39,0-2.04,1.4-3.84,3.41-4.39,1.98-.54,4.08.33,5.1,2.17.29.52.57.75,1.19.75,11.25-.02,22.5-.02,33.75,0,.55,0,.85-.17,1.13-.68,1.04-1.91,3.15-2.79,5.16-2.23,2.01.56,3.4,2.37,3.38,4.41-.02,2.05-1.42,3.83-3.44,4.37-2.01.54-4.05-.39-5.16-2.28-.16-.27-.48-.61-.73-.62-1.92-.05-3.84-.03-5.77-.03ZM43.66,68.02v-3.66h-3.67v3.66h3.67ZM84.75,68.02v-3.66h-3.63v3.66h3.63ZM40.37,43.88c.9.01,1.64-.73,1.62-1.61-.02-.85-.72-1.54-1.58-1.55-.9-.01-1.64.72-1.63,1.61.02.85.73,1.54,1.58,1.55ZM84.38,43.88c.89,0,1.63-.75,1.6-1.63-.03-.85-.74-1.53-1.6-1.53-.9,0-1.62.73-1.59,1.63.03.86.73,1.54,1.59,1.54Z"/>
    </g>
  </g>
  <rect class="cls-1" x="121.8" y="52.31" width="36.9" height="2.85"/>
  <rect class="cls-1" x="121.8" y="62.16" width="21.74" height="2.85"/>
  <rect class="cls-1" x="121.8" y="72.01" width="31.33" height="2.85"/>
</svg>